<svg viewBox="0 0 1154 210.69" xmlns="http://www.w3.org/2000/svg"><path d="m90.49 72.33c11.83.71 29.07-9.94 29.07-9.94-7.04-12.62-.36-19.32-.36-19.32s-9.12-1.42-11.11-15.81c0 0-20.16 1.4-29.31 9.03 4.33-11.01-.5-30.66-.5-30.66-14.2 2.78-18.52-5.63-18.52-5.63s-4.17 8.22-18.51 5.65c0 0-4.9 19.55-.45 30.6-9.15-7.51-29.38-9-29.38-9-1.73 14.34-11.09 15.84-11.09 15.84s6.55 6.5-.33 19.31c0 0 17.13 10.69 29.04 9.88-9.99 6.36-17.66 25.09-17.66 25.09 13.13 6.08 11.68 15.42 11.68 15.42s8.22-4.2 18.3 6.28c0 0 15.48-12.95 18.39-24.49 2.98 11.45 18.47 24.51 18.47 24.51 9.85-10.58 18.31-6.31 18.31-6.31s-1.47-9.09 11.64-15.43c0 0-7.56-18.69-17.67-25.02zm-11.06-30.47c.28-.4.6-.76.95-1.09 6.28-6.03 17.52-7.45 25.29-8.94.25 2.6 1.62 5.67 3.76 9.1-8.89.62-23.78 3.7-35.08 14.73.95-2.78 2.34-6.63 4.08-11.79.07-.19.14-.38.22-.57.19-.45.41-.91.78-1.44zm-34.57-32.5c2.55.57 5.91.21 9.84-.76-2.16 8.63-3.82 23.71 3.2 37.83-2.36-1.76-5.6-4.27-9.98-7.51-.16-.12-.32-.25-.48-.38-.37-.32-.74-.68-1.13-1.19-.29-.39-.53-.8-.75-1.24-3.81-7.82-1.69-18.92-.71-26.76zm-40.21 50.76c1.33-2.25 2.03-5.54 2.32-9.57 7.56 4.72 21.42 10.95 37.06 8.65-2.41 1.7-5.8 3.99-10.24 7.15-.17.12-.34.23-.51.34-.42.25-.87.5-1.48.7-.46.16-.93.26-1.41.33-8.63 1.19-18.56-4.24-25.73-7.6zm51.16 31.76c-1.53 8.56-9.78 16.3-15.2 22.06-1.73-1.96-4.66-3.64-8.4-5.16 6.83-5.71 17.06-16.93 19.7-32.49.87 2.81 2.01 6.74 3.65 11.93.06.19.12.39.16.59.11.48.2.98.22 1.62 0 .48-.04.96-.13 1.44zm3.92-4.02s-.03-.09-.04-.14c-3.97-12.34-5.51-17.91-5.51-17.91s-5.85.37-18.75.37c.04-.03.08-.06.12-.08 10.54-7.58 15.37-10.76 15.37-10.76s-2.16-5.43-6.15-17.67c.04.03.08.06.12.08 10.49 7.66 15.01 11.26 15.01 11.26s4.51-3.73 14.95-11.29c-.02.05-.03.09-.04.13-4.06 12.32-6.09 17.72-6.09 17.72s4.95 3.13 15.38 10.69c-.05 0-.1 0-.14 0-12.99-.05-18.77-.31-18.77-.31s-1.46 5.66-5.44 17.9zm35.81 14.98c-3.33-8.25-10.87-21.42-24.88-28.73 2.95.04 7.05.17 12.5.22.2 0 .41.01.61.03.49.04 1 .11 1.61.3.46.14.91.34 1.33.56 7.69 4.1 12.52 14.32 16.34 21.23-2.4 1.03-4.91 3.29-7.51 6.38z" fill="#215bea"/><path d="m154.97 175.43c-10.5 0-19.33-2.35-26.5-7.04s-12.21-11.08-15.14-19.15l17.87-10.45c4.14 10.8 12.26 16.2 24.38 16.2 5.85 0 10.15-1.06 12.87-3.18s4.09-4.79 4.09-8.03c0-3.73-1.67-6.64-5-8.71s-9.29-4.32-17.87-6.74c-4.75-1.41-8.76-2.83-12.04-4.24s-6.56-3.31-9.84-5.68-5.78-5.38-7.5-9.01-2.57-7.87-2.57-12.72c0-9.59 3.41-17.24 10.22-22.94s15.01-8.55 24.6-8.55c8.58 0 16.13 2.1 22.64 6.28 6.51 4.19 11.58 10.02 15.22 17.49l-17.56 10.14c-4.24-9.08-11-13.63-20.29-13.63-4.34 0-7.75.98-10.22 2.95s-3.71 4.52-3.71 7.65c0 3.33 1.39 6.03 4.16 8.1s8.1 4.32 15.97 6.74c3.23 1.01 5.68 1.79 7.34 2.35 1.67.56 3.94 1.42 6.81 2.57 2.88 1.16 5.1 2.25 6.66 3.26s3.35 2.37 5.38 4.09c2.02 1.72 3.56 3.48 4.62 5.3s1.97 4.01 2.73 6.59c.76 2.57 1.14 5.38 1.14 8.4 0 9.79-3.56 17.56-10.68 23.32-7.12 5.75-16.38 8.63-27.78 8.63z" fill="#002a42"/><path d="m260.46 97.6h19.53v75.71h-19.53v-8.93c-5.86 7.37-14.08 11.05-24.68 11.05s-18.75-3.86-25.97-11.58-10.83-17.19-10.83-28.39 3.61-20.67 10.83-28.39 15.87-11.58 25.97-11.58c10.6 0 18.83 3.69 24.68 11.05v-8.93zm-36.04 53.22c3.94 3.99 8.93 5.98 14.99 5.98s11.08-1.99 15.07-5.98 5.98-9.11 5.98-15.37-1.99-11.38-5.98-15.37-9.01-5.98-15.07-5.98-11.05 1.99-14.99 5.98-5.91 9.11-5.91 15.37 1.97 11.38 5.91 15.37z" fill="#002a42"/><path d="m335.3 83.97c-10.7-.81-16.05 3.48-16.05 12.87v.76h16.05v18.78h-16.05v56.93h-19.53v-56.93h-10.9v-18.78h10.9v-.76c0-10.7 2.98-18.83 8.93-24.38 5.96-5.55 14.84-7.97 26.65-7.27z" fill="#002a42"/><path d="m357.59 143.48c2.62 9.49 9.74 14.23 21.35 14.23 7.47 0 13.12-2.52 16.96-7.57l15.75 9.08c-7.47 10.8-18.47 16.2-33.01 16.2-12.52 0-22.56-3.79-30.13-11.36s-11.36-17.11-11.36-28.62 3.73-20.92 11.21-28.54c7.47-7.62 17.06-11.43 28.77-11.43 11.1 0 20.26 3.84 27.48 11.51s10.83 17.16 10.83 28.47c0 2.52-.25 5.2-.76 8.03h-57.08zm-.3-15.14h38.61c-1.11-5.15-3.41-8.98-6.89-11.51-3.48-2.52-7.45-3.79-11.89-3.79-5.25 0-9.59 1.34-13.02 4.01-3.43 2.68-5.7 6.43-6.81 11.28z" fill="#002a42"/><g fill="#215bea"><path d="m476.94 175.43c-15.95 0-29.12-5.3-39.52-15.9s-15.6-23.67-15.6-39.22 5.2-28.74 15.6-39.29 23.57-15.82 39.52-15.82c9.59 0 18.45 2.25 26.57 6.74s14.46 10.58 19 18.25l-18.02 10.45c-2.63-4.74-6.36-8.45-11.21-11.13-4.85-2.67-10.3-4.01-16.35-4.01-10.3 0-18.6 3.23-24.91 9.69s-9.46 14.84-9.46 25.13 3.15 18.53 9.46 24.98c6.31 6.46 14.61 9.69 24.91 9.69 6.06 0 11.53-1.34 16.43-4.01s8.6-6.33 11.13-10.98l18.02 10.45c-4.54 7.67-10.85 13.76-18.93 18.25s-16.96 6.74-26.65 6.74z"/><path d="m592.47 163.84c-7.77 7.72-17.26 11.58-28.47 11.58s-20.67-3.86-28.39-11.58-11.58-17.19-11.58-28.39 3.86-20.67 11.58-28.39 17.19-11.58 28.39-11.58 20.69 3.86 28.47 11.58c7.77 7.72 11.66 17.19 11.66 28.39s-3.89 20.67-11.66 28.39zm-43.08-13.4c3.88 3.94 8.76 5.91 14.61 5.91s10.75-1.97 14.69-5.91 5.91-8.93 5.91-14.99-1.97-11.05-5.91-14.99-8.83-5.91-14.69-5.91-10.73 1.97-14.61 5.91c-3.89 3.94-5.83 8.93-5.83 14.99s1.94 11.05 5.83 14.99z"/><path d="m653.18 95.48c8.28 0 15.12 2.78 20.52 8.33s8.1 13.22 8.1 23.01v46.49h-19.53v-44.06c0-5.05-1.36-8.91-4.09-11.58-2.72-2.67-6.36-4.01-10.9-4.01-5.05 0-9.08 1.57-12.11 4.69-3.03 3.13-4.54 7.82-4.54 14.08v40.88h-19.53v-75.71h19.53v8.48c4.74-7.06 12.26-10.6 22.56-10.6z"/><path d="m737.19 116.38h-17.11v31.49c0 2.63.66 4.54 1.97 5.75s3.23 1.89 5.75 2.04 5.65.13 9.39-.08v17.72c-13.43 1.51-22.89.25-28.39-3.79s-8.25-11.25-8.25-21.65v-31.49h-13.17v-18.78h13.17v-15.29l19.53-5.91v21.2h17.11v18.78z"/><path d="m768.67 110.62c1.82-4.85 4.82-8.48 9.01-10.9s8.86-3.63 14.01-3.63v21.8c-5.96-.71-11.28.51-15.97 3.63-4.69 3.13-7.04 8.33-7.04 15.6v36.19h-19.53v-75.71h19.53v13.02z"/><path d="m856.5 97.6h19.53v75.71h-19.53v-8.93c-5.86 7.37-14.08 11.05-24.68 11.05s-18.75-3.86-25.97-11.58-10.83-17.19-10.83-28.39 3.61-20.67 10.83-28.39 15.87-11.58 25.97-11.58c10.6 0 18.83 3.69 24.68 11.05v-8.93zm-36.04 53.22c3.94 3.99 8.93 5.98 14.99 5.98s11.08-1.99 15.07-5.98 5.98-9.11 5.98-15.37-1.99-11.38-5.98-15.37-9.01-5.98-15.07-5.98-11.05 1.99-14.99 5.98-5.91 9.11-5.91 15.37 1.97 11.38 5.91 15.37z"/><path d="m923.12 175.43c-11.41 0-20.92-3.83-28.54-11.51-7.62-7.67-11.43-17.16-11.43-28.47s3.81-20.79 11.43-28.47c7.62-7.67 17.13-11.51 28.54-11.51 7.37 0 14.08 1.77 20.14 5.3s10.65 8.28 13.78 14.23l-16.81 9.84c-1.51-3.13-3.81-5.6-6.89-7.42s-6.54-2.73-10.37-2.73c-5.86 0-10.7 1.95-14.54 5.83-3.84 3.89-5.75 8.86-5.75 14.91s1.92 10.88 5.75 14.76c3.83 3.89 8.68 5.83 14.54 5.83 3.94 0 7.44-.88 10.52-2.65 3.08-1.76 5.38-4.21 6.89-7.34l16.96 9.69c-3.33 5.96-8.03 10.73-14.08 14.31s-12.77 5.38-20.14 5.38z"/><path d="m1010.31 116.38h-17.11v31.49c0 2.63.66 4.54 1.97 5.75s3.23 1.89 5.75 2.04 5.65.13 9.39-.08v17.72c-13.43 1.51-22.89.25-28.39-3.79s-8.25-11.25-8.25-21.65v-31.49h-13.17v-18.78h13.17v-15.29l19.53-5.91v21.2h17.11v18.78z"/><path d="m1084.29 163.84c-7.77 7.72-17.26 11.58-28.47 11.58s-20.67-3.86-28.39-11.58-11.58-17.19-11.58-28.39 3.86-20.67 11.58-28.39 17.19-11.58 28.39-11.58 20.69 3.86 28.47 11.58c7.77 7.72 11.66 17.19 11.66 28.39s-3.89 20.67-11.66 28.39zm-43.08-13.4c3.88 3.94 8.76 5.91 14.61 5.91s10.75-1.97 14.69-5.91 5.91-8.93 5.91-14.99-1.97-11.05-5.91-14.99-8.83-5.91-14.69-5.91-10.73 1.97-14.61 5.91c-3.89 3.94-5.83 8.93-5.83 14.99s1.94 11.05 5.83 14.99z"/><path d="m1125.49 110.62c1.82-4.85 4.82-8.48 9.01-10.9s8.86-3.63 14.01-3.63v21.8c-5.96-.71-11.28.51-15.97 3.63-4.69 3.13-7.04 8.33-7.04 15.6v36.19h-19.53v-75.71h19.53v13.02z"/></g></svg>