<svg xmlns="http://www.w3.org/2000/svg" viewBox="0 0 640 420" width="640" height="420" role="img" aria-label="Vehicle image placeholder">
  <rect width="640" height="420" fill="#d7e0ec"/>
  <g fill="#9aabc4">
    <path d="M150 250c6-26 20-56 42-70 14-9 40-14 78-14s70 8 96 26c14 10 34 14 58 18 22 4 34 16 34 34v22c0 6-5 11-11 11h-24a30 30 0 0 1-60 0H235a30 30 0 0 1-60 0h-16c-8 0-14-6-14-14 0-15 2-27 5-39z"/>
    <circle cx="205" cy="286" r="20" fill="#d7e0ec"/><circle cx="205" cy="286" r="11"/>
    <circle cx="435" cy="286" r="20" fill="#d7e0ec"/><circle cx="435" cy="286" r="11"/>
  </g>
  <text x="320" y="360" text-anchor="middle" font-family="Arial, sans-serif" font-size="20" font-weight="700" fill="#7f92ae" letter-spacing="1">VEHICLE IMAGE</text>
</svg>
